REM DIRINDEX 1\2\6,1\2\7,1\2\8,1\3\9,1\3\10,1\3\11,1\4\12,1\4\13,1\4\14,1\5\15,1\5\16,1\5\17,1\5\18
REM DIRNAME folder01,folder02,folder03,folder04,folder05,folder06,folder07,folder08,folder09,folder10,folder11,folder12,folder13,folder14,folder15,folder16,folder17,folder18
TITLE ""
FILE "2Q_t_0090-0107.mp3" MP3
  TRACK 01 AUDIO
    TITLE "13:cjc019_2235"
    INDEX 01 00:00:00
  TRACK 02 AUDIO
    TITLE "0:"
    INDEX 01 00:01:03
  TRACK 03 AUDIO
    TITLE "14:cjc019_2236"
    INDEX 01 00:01:54
  TRACK 04 AUDIO
    TITLE "0:"
    INDEX 01 00:05:59
  TRACK 05 AUDIO
    TITLE "13:cjc019_2237"
    INDEX 01 00:06:33
  TRACK 06 AUDIO
    TITLE "0:"
    INDEX 01 00:07:39
  TRACK 07 AUDIO
    TITLE "14:cjc019_2238"
    INDEX 01 00:08:19
  TRACK 08 AUDIO
    TITLE "0:"
    INDEX 01 00:13:26
  TRACK 09 AUDIO
    TITLE "13:cjc019_2239"
    INDEX 01 00:14:00
  TRACK 10 AUDIO
    TITLE "0:"
    INDEX 01 00:15:15
  TRACK 11 AUDIO
    TITLE "14:cjc019_2240"
    INDEX 01 00:15:70
  TRACK 12 AUDIO
    TITLE "0:"
    INDEX 01 00:18:74
  TRACK 13 AUDIO
    TITLE "13:cjc019_2241"
    INDEX 01 00:19:50
  TRACK 14 AUDIO
    TITLE "0:"
    INDEX 01 00:21:19
  TRACK 15 AUDIO
    TITLE "14:cjc019_2242"
    INDEX 01 00:21:72
  TRACK 16 AUDIO
    TITLE "0:"
    INDEX 01 00:25:09
  TRACK 17 AUDIO
    TITLE "13:cjc019_2243"
    INDEX 01 00:25:60
  TRACK 18 AUDIO
    TITLE "0:"
    INDEX 01 00:27:00
  TRACK 19 AUDIO
    TITLE "14:cjc019_2244"
    INDEX 01 00:27:55
  TRACK 20 AUDIO
    TITLE "0:"
    INDEX 01 00:29:44
  TRACK 21 AUDIO
    TITLE "13:cjc019_2245"
    INDEX 01 00:30:26
  TRACK 22 AUDIO
    TITLE "0:"
    INDEX 01 00:31:43
  TRACK 23 AUDIO
    TITLE "14:cjc019_2246"
    INDEX 01 00:32:21
  TRACK 24 AUDIO
    TITLE "0:"
    INDEX 01 00:35:21
  TRACK 25 AUDIO
    TITLE "13:cjc019_2247"
    INDEX 01 00:35:70
  TRACK 26 AUDIO
    TITLE "0:"
    INDEX 01 00:37:03
  TRACK 27 AUDIO
    TITLE "14:cjc019_2248"
    INDEX 01 00:37:54
  TRACK 28 AUDIO
    TITLE "0:"
    INDEX 01 00:41:10
  TRACK 29 AUDIO
    TITLE "13:cjc019_2249"
    INDEX 01 00:41:61
  TRACK 30 AUDIO
    TITLE "0:"
    INDEX 01 00:43:01
  TRACK 31 AUDIO
    TITLE "14:cjc019_2250"
    INDEX 01 00:43:58
  TRACK 32 AUDIO
    TITLE "0:"
    INDEX 01 00:45:51
  TRACK 33 AUDIO
    TITLE "13:cjc019_2251"
    INDEX 01 00:46:27
  TRACK 34 AUDIO
    TITLE "0:"
    INDEX 01 00:47:50
  TRACK 35 AUDIO
    TITLE "14:cjc019_2252"
    INDEX 01 00:48:28
  TRACK 36 AUDIO
    TITLE "0:"
    INDEX 01 00:52:18
  TRACK 37 AUDIO
    TITLE "13:cjc019_2253"
    INDEX 01 00:52:71
  TRACK 38 AUDIO
    TITLE "0:"
    INDEX 01 00:54:15
  TRACK 39 AUDIO
    TITLE "14:cjc019_2254"
    INDEX 01 00:54:74
  TRACK 40 AUDIO
    TITLE "0:"
    INDEX 01 00:59:12
  TRACK 41 AUDIO
    TITLE "13:cjc019_2255"
    INDEX 01 00:59:61
  TRACK 42 AUDIO
    TITLE "0:"
    INDEX 01 01:01:09
  TRACK 43 AUDIO
    TITLE "14:cjc019_2256"
    INDEX 01 01:01:68
  TRACK 44 AUDIO
    TITLE "0:"
    INDEX 01 01:03:43
  TRACK 45 AUDIO
    TITLE "13:cjc019_2257"
    INDEX 01 01:04:23
  TRACK 46 AUDIO
    TITLE "0:"
    INDEX 01 01:05:38
  TRACK 47 AUDIO
    TITLE "14:cjc019_2258"
    INDEX 01 01:06:16
  TRACK 48 AUDIO
    TITLE "0:"
    INDEX 01 01:09:54
  TRACK 49 AUDIO
    TITLE "13:cjc019_2259"
    INDEX 01 01:10:28
  TRACK 50 AUDIO
    TITLE "0:"
    INDEX 01 01:11:45
  TRACK 51 AUDIO
    TITLE "14:cjc019_2260"
    INDEX 01 01:12:26
  TRACK 52 AUDIO
    TITLE "0:"
    INDEX 01 01:17:14
  TRACK 53 AUDIO
    TITLE "13:cjc019_2261"
    INDEX 01 01:17:63
  TRACK 54 AUDIO
    TITLE "0:"
    INDEX 01 01:19:03
  TRACK 55 AUDIO
    TITLE "14:cjc019_2262"
    INDEX 01 01:19:56
  TRACK 56 AUDIO
    TITLE "0:"
    INDEX 01 01:25:00
  TRACK 57 AUDIO
    TITLE "13:cjc019_2263"
    INDEX 01 01:25:51
  TRACK 58 AUDIO
    TITLE "0:"
    INDEX 01 01:26:54
  TRACK 59 AUDIO
    TITLE "14:cjc019_2264"
    INDEX 01 01:27:38
  TRACK 60 AUDIO
    TITLE "0:"
    INDEX 01 01:31:02
  TRACK 61 AUDIO
    TITLE "13:cjc019_2265"
    INDEX 01 01:31:49
  TRACK 62 AUDIO
    TITLE "0:"
    INDEX 01 01:32:60
  TRACK 63 AUDIO
    TITLE "14:cjc019_2266"
    INDEX 01 01:33:36
  TRACK 64 AUDIO
    TITLE "0:"
    INDEX 01 01:36:33
  TRACK 65 AUDIO
    TITLE "13:cjc019_2267"
    INDEX 01 01:37:09
  TRACK 66 AUDIO
    TITLE "0:"
    INDEX 01 01:38:20
  TRACK 67 AUDIO
    TITLE "14:cjc019_2268"
    INDEX 01 01:39:00
  TRACK 68 AUDIO
    TITLE "0:"
    INDEX 01 01:40:54
  TRACK 69 AUDIO
    TITLE "13:cjc019_2269"
    INDEX 01 01:41:34
  TRACK 70 AUDIO
    TITLE "0:"
    INDEX 01 01:42:47
  TRACK 71 AUDIO
    TITLE "14:cjc019_2270"
    INDEX 01 01:43:19
  TRACK 72 AUDIO
    TITLE "0:"
    INDEX 01 01:46:18
